<svg width="109" height="40" viewBox="0 0 109 40" fill="none" xmlns="http://www.w3.org/2000/svg">
<path d="M13.1397 11.1217C10.7182 11.1217 8.65454 11.9956 6.9489 13.7433C5.23273 15.5016 4.37465 17.6179 4.37465 20.0921C4.37465 22.5558 5.23273 24.6668 6.9489 26.4251C8.65454 28.1728 10.7182 29.0467 13.1397 29.0467C14.5927 29.0467 15.9614 28.6993 17.2459 28.0044C18.5304 27.3095 19.5833 26.3461 20.4045 25.1143C20.6256 24.7668 20.9362 24.5563 21.3363 24.4826C21.4416 24.4615 21.5469 24.451 21.6521 24.451C21.9364 24.451 22.1996 24.5299 22.4418 24.6879C22.7892 24.9195 22.9998 25.2354 23.0735 25.6354C23.0946 25.7407 23.1051 25.846 23.1051 25.9513C23.1051 26.2356 23.0261 26.4988 22.8682 26.7409C21.7732 28.3939 20.3676 29.6837 18.6515 30.6102C16.9248 31.5367 15.0875 32 13.1397 32C9.90745 32 7.14895 30.8366 4.86423 28.5098C2.56899 26.1829 1.42137 23.377 1.42137 20.0921C1.42137 16.7966 2.56899 13.9855 4.86423 11.6587C7.14895 9.32131 9.90745 8.15264 13.1397 8.15264C15.0875 8.15264 16.9248 8.62116 18.6515 9.55821C20.3676 10.4847 21.7732 11.7745 22.8682 13.4275C23.0367 13.6802 23.1209 13.9487 23.1209 14.2329C23.1209 14.3277 23.1104 14.4277 23.0893 14.533C23.0051 14.9331 22.7945 15.2489 22.4576 15.4806C22.2049 15.6385 21.9417 15.7175 21.6679 15.7175C21.5521 15.7175 21.4416 15.7069 21.3363 15.6859C20.9362 15.6122 20.6256 15.4016 20.4045 15.0542C19.5833 13.8223 18.5304 12.8589 17.2459 12.164C15.9614 11.4692 14.5927 11.1217 13.1397 11.1217ZM33.4337 14.1855C35.8447 14.1855 37.9084 15.0594 39.6245 16.8072C41.3407 18.5444 42.1988 20.6449 42.1988 23.1086C42.1988 25.5617 41.3407 27.6569 39.6245 29.3942C37.9084 31.1314 35.8447 32 33.4337 32C31.0121 32 28.9485 31.1314 27.2429 29.3942C25.5267 27.6569 24.6686 25.5617 24.6686 23.1086C24.6686 20.6449 25.5267 18.5444 27.2429 16.8072C28.9485 15.0594 31.0121 14.1855 33.4337 14.1855ZM33.4337 29.0467C35.034 29.0467 36.4028 28.4676 37.5399 27.3095C38.677 26.1408 39.2455 24.7405 39.2455 23.1086C39.2455 21.4661 38.677 20.0605 37.5399 18.8918C36.4028 17.7337 35.034 17.1546 33.4337 17.1546C31.8333 17.1546 30.4646 17.7337 29.3275 18.8918C28.1904 20.0605 27.6219 21.4661 27.6219 23.1086C27.6219 24.7405 28.1904 26.1408 29.3275 27.3095C30.4646 28.4676 31.8333 29.0467 33.4337 29.0467ZM61.1503 30.5313C61.1503 30.9419 61.0029 31.2893 60.7081 31.5736C60.4239 31.8579 60.0764 32 59.6658 32C59.2552 32 58.9077 31.8579 58.6235 31.5736C58.3392 31.2893 58.197 30.9419 58.197 30.5313V29.7574C56.5335 31.2525 54.5963 32 52.3852 32C49.9636 32 47.9 31.1314 46.1944 29.3942C44.4782 27.6569 43.6201 25.5617 43.6201 23.1086C43.6201 20.6449 44.4782 18.5444 46.1944 16.8072C47.9 15.0594 49.9636 14.1855 52.3852 14.1855C54.5963 14.1855 56.5335 14.9383 58.197 16.4439V9.63717C58.197 9.22656 58.3392 8.87911 58.6235 8.59484C58.9077 8.30004 59.2552 8.15264 59.6658 8.15264C60.0764 8.15264 60.4239 8.30004 60.7081 8.59484C61.0029 8.87911 61.1503 9.22656 61.1503 9.63717V30.5313ZM52.3852 29.0467C53.9856 29.0467 55.3543 28.4676 56.4914 27.3095C57.6285 26.1408 58.197 24.7405 58.197 23.1086V23.0928C58.197 21.4503 57.6285 20.05 56.4914 18.8918C55.3543 17.7337 53.9856 17.1546 52.3852 17.1546C50.7849 17.1546 49.4162 17.7337 48.2791 18.8918C47.142 20.0605 46.5734 21.4661 46.5734 23.1086C46.5734 24.7405 47.142 26.1408 48.2791 27.3095C49.4162 28.4676 50.7849 29.0467 52.3852 29.0467ZM78.3015 21.6398C77.9646 20.3343 77.2644 19.2603 76.201 18.4181C75.106 17.5652 73.8689 17.1388 72.4897 17.1388C71.0999 17.1388 69.8575 17.5652 68.7625 18.4181C67.6991 19.2603 66.999 20.3343 66.6621 21.6398H78.3015ZM72.4897 32C70.0154 32 67.8992 31.1314 66.1409 29.3942C65.3197 28.5729 64.6827 27.6359 64.23 26.583C63.7562 25.4775 63.5193 24.3246 63.5193 23.1244C63.5193 20.6607 64.3931 18.5549 66.1409 16.8072C66.9727 15.9859 67.9255 15.349 68.9994 14.8962C70.1049 14.4224 71.2683 14.1855 72.4897 14.1855C74.9534 14.1855 77.0644 15.0594 78.8226 16.8072C79.6439 17.6284 80.2809 18.576 80.7336 19.6499C81.2074 20.7554 81.4443 21.9136 81.4443 23.1244C81.4443 23.535 81.3021 23.8824 81.0179 24.1667C80.7231 24.4615 80.3704 24.6089 79.9597 24.6089H66.6621C66.999 25.8934 67.7044 26.9515 68.7783 27.7833C69.8628 28.6256 71.0999 29.0467 72.4897 29.0467C74.6796 29.0467 76.3695 28.3781 77.5592 27.041C77.8224 26.7357 78.1593 26.5725 78.57 26.5514C78.9806 26.5304 79.3386 26.6515 79.6439 26.9147C79.9492 27.1884 80.1124 27.5306 80.1335 27.9412C80.1545 28.3413 80.0282 28.694 79.7544 28.9993C77.9856 30.9998 75.564 32 72.4897 32Z" fill="#A95131"/>
<path fill-rule="evenodd" clip-rule="evenodd" d="M108.317 7.39019C108.331 6.49714 107.619 5.76191 106.726 5.748C105.833 5.7341 105.097 6.44678 105.083 7.33983C105.028 10.9051 103.857 13.4095 102.277 15.01C100.686 16.6214 98.5878 17.4139 96.4918 17.3976C94.3949 17.3814 92.3195 16.556 90.7747 14.9408C89.2419 13.338 88.1417 10.8605 88.1776 7.38172C88.1869 6.48861 87.4703 5.75712 86.5772 5.74789C85.6841 5.73866 84.9526 6.45519 84.9434 7.34829C84.8999 11.5582 86.2469 14.8861 88.4372 17.1763C89.1485 17.9201 89.9393 18.5441 90.7837 19.0482C90.0387 19.5013 89.3352 20.0484 88.6909 20.69C86.4428 22.9285 85.0096 26.2219 84.9427 30.4426C84.9286 31.3356 85.641 32.0711 86.5341 32.0852C87.4271 32.0994 88.1626 31.3869 88.1767 30.4938C88.232 27.0031 89.3971 24.5512 90.9731 22.9819C92.5619 21.3997 94.6637 20.617 96.7685 20.633C98.8742 20.6491 100.952 21.4642 102.495 23.0497C104.024 24.6209 105.118 27.0458 105.082 30.4512C105.073 31.3443 105.789 32.0759 106.683 32.0853C107.576 32.0947 108.307 31.3783 108.317 30.4852C108.36 26.3322 107.008 23.0501 104.813 20.7943C104.104 20.065 103.316 19.4532 102.475 18.9588C103.225 18.4964 103.932 17.9377 104.579 17.2823C106.823 15.0092 108.251 11.6693 108.317 7.39019Z" fill="#A95131"/>
</svg>
