<svg width="302" height="48" viewBox="0 0 302 48" fill="none" xmlns="http://www.w3.org/2000/svg">
<rect x="24.0007" width="254" height="47" fill="#F7DDD0"/>
<path d="M69.0314 24.064C69.0314 20.448 66.6634 17.952 63.2234 17.952C59.7994 17.952 57.4314 20.464 57.4314 24.08C57.4314 27.696 59.7834 30.192 63.2074 30.192C66.6474 30.192 69.0314 27.68 69.0314 24.064ZM66.2954 24.064C66.2954 26.304 65.1434 27.696 63.2394 27.696C61.3194 27.696 60.1674 26.336 60.1674 24.064C60.1674 21.808 61.3194 20.448 63.2394 20.448C65.1434 20.448 66.2954 21.808 66.2954 24.064ZM70.2774 25.552C70.2774 28.384 72.1814 30.192 75.1414 30.192C78.1174 30.192 80.0374 28.368 80.0374 25.552V18.16H77.4454V25.376C77.4454 26.832 76.6134 27.68 75.1414 27.68C73.6854 27.68 72.8694 26.864 72.8694 25.376V18.16H70.2774V25.552ZM84.5319 30V25.856H86.5319L88.3079 30H91.1399L89.0599 25.296C90.3719 24.624 91.0279 23.536 91.0279 22C91.0279 19.552 89.3959 18.16 86.5159 18.16H81.9399V30H84.5319ZM84.5319 20.464H86.5159C87.6679 20.464 88.2919 21.008 88.2919 22C88.2919 23.008 87.6359 23.584 86.4999 23.584H84.5319V20.464ZM101.35 30.192C104.31 30.192 106.518 28.448 106.934 25.808H104.246C103.926 26.976 102.854 27.696 101.398 27.696C99.4939 27.696 98.3099 26.304 98.3099 24.08C98.3099 21.824 99.4779 20.464 101.398 20.464C102.822 20.464 103.83 21.136 104.182 22.32H106.918C106.55 19.664 104.422 17.968 101.462 17.968C97.9259 17.968 95.5739 20.4 95.5739 24.096C95.5739 27.84 97.7979 30.192 101.35 30.192ZM119.131 24.064C119.131 20.448 116.763 17.952 113.323 17.952C109.899 17.952 107.531 20.464 107.531 24.08C107.531 27.696 109.883 30.192 113.307 30.192C116.747 30.192 119.131 27.68 119.131 24.064ZM116.395 24.064C116.395 26.304 115.243 27.696 113.339 27.696C111.419 27.696 110.267 26.336 110.267 24.064C110.267 21.808 111.419 20.448 113.339 20.448C115.243 20.448 116.395 21.808 116.395 24.064ZM123.049 18.16H120.457V30H127.721V27.6H123.049V18.16ZM131.46 18.16H128.868V30H136.132V27.6H131.46V18.16ZM144.799 30V27.6H139.871V25.152H144.239V22.88H139.871V20.56H144.799V18.16H137.279V30H144.799ZM151.559 30.192C154.519 30.192 156.727 28.448 157.143 25.808H154.455C154.135 26.976 153.063 27.696 151.607 27.696C149.703 27.696 148.519 26.304 148.519 24.08C148.519 21.824 149.687 20.464 151.607 20.464C153.031 20.464 154.039 21.136 154.391 22.32H157.127C156.759 19.664 154.631 17.968 151.671 17.968C148.135 17.968 145.783 20.4 145.783 24.096C145.783 27.84 148.007 30.192 151.559 30.192ZM156.844 20.56H160.204V30H162.796V20.56H166.156V18.16H156.844V20.56ZM169.821 18.16H167.229V30H169.821V18.16ZM175.172 30H177.844L182.196 18.16H179.492L177.284 24.144C177.028 24.848 176.804 25.504 176.5 26.64C176.244 25.616 176.02 24.88 175.748 24.144L173.508 18.16H170.74L175.172 30ZM190.633 30V27.6H185.705V25.152H190.073V22.88H185.705V20.56H190.633V18.16H183.113V30H190.633ZM198.62 18.16H196.028V30H198.62V18.16ZM203.123 30V26.688C203.123 25.392 203.107 24.4 202.963 23.52L205.459 30H207.827L210.339 23.52C210.211 24.4 210.211 24.96 210.211 27.52V30H212.723V18.16H210.179L206.643 26.992L203.123 18.16H200.611V30H203.123ZM219.509 26.064C221.925 26.064 223.541 24.48 223.541 22.112C223.541 19.744 221.925 18.16 219.509 18.16H214.709V30H217.301V26.064H219.509ZM218.933 20.464C220.181 20.464 220.805 21.008 220.805 22.112C220.805 23.216 220.181 23.76 218.933 23.76H217.301V20.464H218.933ZM225.595 30L226.443 27.504H230.267L231.099 30H233.851L229.643 18.16H227.115L222.891 30H225.595ZM228.043 22.8C228.187 22.368 228.315 21.92 228.363 21.648C228.411 21.936 228.555 22.4 228.683 22.8L229.531 25.328H227.195L228.043 22.8ZM239.228 30.192C242.188 30.192 244.396 28.448 244.812 25.808H242.124C241.804 26.976 240.732 27.696 239.276 27.696C237.372 27.696 236.188 26.304 236.188 24.08C236.188 21.824 237.356 20.464 239.276 20.464C240.7 20.464 241.708 21.136 242.06 22.32H244.796C244.428 19.664 242.3 17.968 239.34 17.968C235.804 17.968 233.452 20.4 233.452 24.096C233.452 27.84 235.676 30.192 239.228 30.192ZM244.513 20.56H247.873V30H250.465V20.56H253.825V18.16H244.513V20.56Z" fill="black"/>
<path d="M301.221 0.137326L277.138 24.2366L277.138 0.137182L301.221 0.137326Z" fill="#F7DDD0"/>
<path d="M277.138 23.1374L301.375 47.0819L277.276 47.2195L277.138 23.1374Z" fill="#F7DDD0"/>
<path d="M0.153725 47.0824L24.2362 22.9832L24.2362 47.0826L0.153725 47.0824Z" fill="#F7DDD0"/>
<path d="M24.2362 24.0823L-6.88505e-05 0.1378L24.0989 0.000228894L24.2362 24.0823Z" fill="#F7DDD0"/>
</svg>
