<svg width="336" height="326" viewBox="0 0 336 326" fill="none" xmlns="http://www.w3.org/2000/svg">
<circle cx="117.5" cy="208.5" r="117.5" fill="#A75030"/>
<g clip-path="url(#clip0_1134_353)" filter="url(#filter0_d_1134_353)">
<path d="M134.54 9.50014L39.3501 133.17L295.35 69.5301L152.76 4.93014C149.654 3.52023 146.161 3.20451 142.852 4.03445C139.543 4.8644 136.613 6.79105 134.54 9.50014Z" fill="#EBEBEB"/>
<path d="M38 134.05L134.12 9.19003C136.264 6.38239 139.299 4.38822 142.727 3.53577C146.155 2.68333 149.771 3.0234 152.98 4.50003L296.98 69.73L38 134.05ZM146.5 4.05003C144.264 4.05154 142.059 4.57051 140.057 5.56631C138.055 6.56212 136.31 8.00774 134.96 9.79003L40.69 132.3L293.75 69.39L152.55 5.39003C150.649 4.53283 148.586 4.09296 146.5 4.10003V4.05003Z" fill="#E0E0E0"/>
<path d="M39.3433 133.175L296.245 69.3123L330.856 208.545C331.541 211.301 331.103 214.217 329.639 216.651C328.174 219.085 325.803 220.837 323.046 221.522L86.932 280.217C84.1754 280.902 81.2595 280.464 78.8258 279C76.3921 277.535 74.6398 275.164 73.9546 272.407L39.3433 133.175Z" fill="#F0F0F0"/>
<path d="M280.43 76.94L191.43 167.87L56.91 137.59L41.52 66.24C40.6683 62.5596 41.2969 58.6918 43.2704 55.4706C45.2439 52.2494 48.4042 49.9327 52.07 49.02L246.67 0.649997C248.505 0.192328 250.411 0.100976 252.281 0.381171C254.151 0.661366 255.948 1.3076 257.568 2.2829C259.188 3.25819 260.599 4.54339 261.722 6.06492C262.845 7.58645 263.656 9.31445 264.11 11.15L280.43 76.94Z" fill="white"/>
<path d="M179.21 160.72L73.52 271.16C73.8932 272.662 74.5587 274.076 75.4784 275.32C76.3981 276.565 77.5541 277.616 78.8802 278.414C80.2063 279.212 81.6767 279.74 83.2072 279.97C84.7377 280.199 86.2983 280.124 87.8 279.75L322.1 221.5C325.131 220.746 327.739 218.82 329.35 216.144C330.96 213.468 331.443 210.262 330.69 207.23L330.47 206.35L192.27 157.6C190.024 156.806 187.596 156.679 185.279 157.232C182.962 157.786 180.855 158.997 179.21 160.72Z" fill="#E0E0E0"/>
<path d="M145.444 59.5538L69.314 78.4927L71.2477 86.2658L147.377 67.3268L145.444 59.5538Z" fill="#E0E0E0"/>
<path d="M243.126 56.1797L74.2146 98.2002L76.3994 106.983L245.311 64.962L243.126 56.1797Z" fill="#E0E0E0"/>
<path d="M248.469 77.6358L79.5574 119.656L81.7422 128.439L250.654 86.4181L248.469 77.6358Z" fill="#E0E0E0"/>
<path d="M252.02 106.07L246.73 111.36L104.93 148.43L86.4 144.1L85.7 142.09L254.07 100.21L254.79 103.12L252.02 106.07Z" fill="#E0E0E0"/>
<path d="M215.75 143.02L151.86 158.9L132.34 154.44L227.81 130.69L215.75 143.02Z" fill="#E0E0E0"/>
<path d="M175.35 164.74C175.35 164.74 175.28 164.85 175.11 165.04L174.35 165.87L171.41 169.02L160.52 180.55C151.3 190.26 138.52 203.68 124.37 218.39C110.22 233.1 97.22 246.3 87.74 255.76C83 260.49 79.14 264.31 76.46 266.92L73.37 269.92L72.55 270.69C72.4645 270.786 72.367 270.87 72.26 270.94C72.3339 270.836 72.4176 270.739 72.51 270.65L73.29 269.84L76.29 266.77L87.46 255.5C96.87 245.97 109.8 232.74 123.98 218.02C138.16 203.3 150.98 190.02 160.23 180.29L171.23 168.88L174.23 165.8L175.03 165.01C175.25 164.82 175.35 164.74 175.35 164.74Z" fill="#FAFAFA"/>
<path d="M330.47 206.33C330.42 206.47 300.95 196.24 264.65 183.48C228.35 170.72 198.96 160.26 199.01 160.12C199.06 159.98 228.53 170.2 264.83 182.96C301.13 195.72 330.52 206.18 330.47 206.33Z" fill="#FAFAFA"/>
<path d="M284.66 72.5601C284.605 72.6492 284.541 72.7329 284.47 72.8101L283.91 73.5001L281.54 76.1301L272.71 85.7201C265.23 93.7901 254.81 104.85 243.13 116.92C231.45 128.99 220.67 139.76 212.85 147.5L203.54 156.62L200.98 159.07L200.31 159.7C200.15 159.84 200.07 159.91 200.06 159.9C200.124 159.815 200.194 159.734 200.27 159.66L200.9 158.99L203.39 156.47L212.57 147.23C220.33 139.42 231 128.6 242.68 116.54C254.36 104.48 264.82 93.5001 272.38 85.5001L281.33 76.0301L283.78 73.4701L284.43 72.8101C284.496 72.7176 284.573 72.6336 284.66 72.5601Z" fill="#FAFAFA"/>
<path d="M175.35 164.74C175.232 164.734 175.114 164.713 175 164.68L174 164.44L170 163.44C166.58 162.58 161.61 161.37 155.46 159.93C143.17 157.02 126.12 153.27 107.28 149.19C88.4401 145.11 71.4001 141.3 59.1301 138.29C52.9901 136.79 48.0301 135.53 44.6201 134.61L40.6901 133.54L39.6901 133.25C39.572 133.225 39.4577 133.185 39.3501 133.13L39.7001 133.2L40.7001 133.43L44.7001 134.43C48.1301 135.29 53.1001 136.49 59.2501 137.94C71.5401 140.85 88.5801 144.6 107.43 148.68C126.28 152.76 143.31 156.57 155.58 159.58C161.72 161.08 166.68 162.33 170.09 163.26L174.01 164.33L175.01 164.62L175.35 164.74Z" fill="#FAFAFA"/>
<path d="M280.43 76.9401C280.43 76.9401 280.33 76.6101 280.16 75.9401L279.43 73.1101C278.79 70.6001 277.86 66.9301 276.66 62.2001L266.59 22.0801C266.057 19.9601 265.513 17.7901 264.96 15.5701C264.69 14.4701 264.41 13.3401 264.12 12.2101C263.98 11.6401 263.84 11.0701 263.66 10.5201C263.503 9.95859 263.303 9.41024 263.06 8.88011C262.069 6.63667 260.51 4.69036 258.537 3.23312C256.564 1.77587 254.246 0.858029 251.81 0.570113C250.546 0.395234 249.264 0.395234 248 0.570113C246.74 0.790113 245.46 1.14011 244.17 1.45011L236.32 3.45011L219.91 7.50011L147 25.7001L73.9999 43.8201L57.6099 47.8801L53.6099 48.8801C52.3116 49.1499 51.0399 49.5347 49.8099 50.0301C47.4376 51.0584 45.3907 52.7146 43.8899 54.8201C43.1637 55.8433 42.5721 56.9558 42.1299 58.1301C41.7176 59.2902 41.4457 60.4954 41.3199 61.7201C41.0299 64.1701 41.7099 66.5301 42.1899 68.8601C43.1899 73.5268 44.1466 77.9968 45.0599 82.2701C48.7099 99.3601 51.6599 113.18 53.6999 122.75C54.6999 127.53 55.4899 131.23 56.0299 133.75C56.2799 135 56.4799 135.96 56.6199 136.62C56.7599 137.28 56.7999 137.62 56.7999 137.62C56.7999 137.62 56.7099 137.29 56.5599 136.62C56.4099 135.95 56.1999 135.01 55.9199 133.77C55.3599 131.24 54.5499 127.54 53.4999 122.77C51.4099 113.21 48.3999 99.3901 44.6799 82.3301C43.7599 78.0601 42.7799 73.5901 41.7699 68.9201C41.2899 66.6201 40.5899 64.1801 40.8899 61.6501C41.0049 60.3837 41.2805 59.137 41.7099 57.9401C42.1668 56.7284 42.7749 55.5793 43.5199 54.5201C44.2776 53.442 45.1831 52.4759 46.2099 51.6501C47.2381 50.7929 48.3872 50.092 49.6199 49.5701C50.8712 49.0594 52.1666 48.6645 53.4899 48.3901L57.4899 47.3901L73.9099 43.3301L146.91 25.1701L219.91 7.05012L236.3 2.99012L244.15 1.05011C245.44 0.730113 246.7 0.390113 248.02 0.160113C249.948 -0.127802 251.913 -0.0284676 253.802 0.452304C255.691 0.933076 257.465 1.78563 259.02 2.96011C260.999 4.45817 262.562 6.43758 263.56 8.71011C263.811 9.25624 264.018 9.82133 264.18 10.4001C264.36 10.9701 264.5 11.5401 264.64 12.1101C264.92 13.2401 265.19 14.3701 265.47 15.4801C266.02 17.7001 266.55 19.8701 267.08 21.9901L276.98 62.1801C278.13 66.9201 279.03 70.6001 279.64 73.1101C279.94 74.3601 280.17 75.3101 280.32 75.9601C280.47 76.6101 280.43 76.9401 280.43 76.9401Z" fill="#E0E0E0"/>
<path d="M168.61 24.16L158.73 31.69L159.21 46.07L150.15 38.88L145.16 43.16L126.16 19.7L168.61 24.16Z" fill="#A95131"/>
<path d="M155.01 34.75C155.01 35.19 159.21 46.07 159.21 46.07L150.16 38.88L155.01 34.75Z" fill="#A95131"/>
<g opacity="0.3">
<path d="M155.01 34.75C155.01 35.19 159.21 46.07 159.21 46.07L150.16 38.88L155.01 34.75Z" fill="black"/>
</g>
<path d="M126.16 19.7L155.01 34.75L159.21 46.07L158.73 31.69L126.16 19.7Z" fill="#A95131"/>
<path opacity="0.1" d="M126.16 19.7L155.01 34.75L159.21 46.07L158.73 31.69L126.16 19.7Z" fill="black"/>
<path d="M180.58 44.19C179.693 44.203 178.81 44.0643 177.97 43.78C177.089 43.6719 176.235 43.4042 175.45 42.99C176.342 42.8729 177.248 42.9619 178.1 43.25C178.99 43.3591 179.841 43.6816 180.58 44.19Z" fill="#263238"/>
<path d="M190.26 48.34C188.582 47.7895 186.995 46.9943 185.55 45.98C186.443 46.0648 187.303 46.3595 188.06 46.84C189.37 47.5 190.34 48.21 190.26 48.34Z" fill="#263238"/>
<path d="M198.65 54.7C198.54 54.81 197.65 54.06 196.53 53.12C195.41 52.18 194.53 51.38 194.66 51.25C195.513 51.5513 196.283 52.0478 196.91 52.7C198 53.66 198.76 54.6 198.65 54.7Z" fill="#263238"/>
<path d="M205.05 63.05C204.91 63.12 204.25 62.15 203.45 60.95C202.89 60.2623 202.45 59.4846 202.15 58.65C202.26 58.56 203.1 59.42 203.91 60.65C204.474 61.3486 204.865 62.1711 205.05 63.05Z" fill="#263238"/>
<path d="M208.68 72.9198C208.251 72.1443 207.953 71.3029 207.8 70.4298C207.466 69.6056 207.28 68.7288 207.25 67.8398C207.79 68.5597 208.156 69.3948 208.32 70.2798C208.656 71.1166 208.78 72.0236 208.68 72.9198Z" fill="#263238"/>
<path d="M209.22 83.4199C209.041 82.5516 209.004 81.6601 209.11 80.7799C209.035 79.8959 209.116 79.0056 209.35 78.1499C209.655 78.9943 209.761 79.8978 209.66 80.7899C209.723 81.689 209.572 82.5903 209.22 83.4199Z" fill="#263238"/>
<path d="M206.49 93.5598C206.598 92.6819 206.848 91.8274 207.23 91.0298C207.434 90.1724 207.771 89.3524 208.23 88.5999C208.279 89.5008 208.096 90.3993 207.7 91.2099C207.496 92.0809 207.081 92.8881 206.49 93.5598Z" fill="#263238"/>
<path d="M200.38 102.1C200.28 101.98 201.06 101.1 202.01 100.02C202.96 98.94 203.72 98.02 203.85 98.13C203.566 98.9865 203.075 99.7595 202.42 100.38C201.45 101.5 200.48 102.21 200.38 102.1Z" fill="#263238"/>
<path d="M191.56 107.78C192.235 107.208 192.999 106.749 193.82 106.42C194.558 105.93 195.373 105.565 196.23 105.34C195.649 106.032 194.907 106.571 194.07 106.91C193.318 107.402 192.455 107.701 191.56 107.78Z" fill="#263238"/>
<path d="M181.3 109.99C182.136 109.682 183.019 109.517 183.91 109.5C184.775 109.301 185.666 109.244 186.55 109.33C185.765 109.775 184.882 110.019 183.98 110.04C183.097 110.251 182.174 110.234 181.3 109.99Z" fill="#263238"/>
<path d="M171 108.04C172.71 108.396 174.384 108.908 176 109.57C175.104 109.682 174.194 109.558 173.36 109.21C172.484 109.034 171.67 108.63 171 108.04Z" fill="#263238"/>
<path d="M163.7 100.8C163.85 100.75 164.31 101.8 165.13 102.98C165.95 104.16 166.74 104.98 166.63 105.13C166.52 105.28 165.54 104.53 164.68 103.3C164.075 102.605 163.729 101.721 163.7 100.8Z" fill="#263238"/>
<path d="M168.14 92.6099C168.14 92.7699 167.05 93.1199 165.91 93.9299C164.77 94.7399 164.16 95.7499 164.02 95.6699C163.88 95.5899 164.32 94.3899 165.59 93.4899C166.297 92.8826 167.209 92.5679 168.14 92.6099Z" fill="#263238"/>
<path d="M177.18 96.3599C177.04 96.4399 176.4 95.4599 175.36 94.4999C174.32 93.5399 173.26 93.0599 173.36 92.9099C174.289 92.9831 175.155 93.4089 175.78 94.0999C176.498 94.6649 176.994 95.4652 177.18 96.3599Z" fill="#263238"/>
<path d="M177.52 106.57C177.594 105.699 177.758 104.837 178.01 104C178.085 103.125 178.249 102.261 178.5 101.42C178.768 102.293 178.768 103.227 178.5 104.1C178.431 105.004 178.09 105.865 177.52 106.57Z" fill="#263238"/>
<path d="M170.67 114.42C170.58 114.29 171.49 113.54 172.58 112.61C173.67 111.68 174.58 110.88 174.65 110.98C174.72 111.08 174.07 112.06 172.94 112.98C171.81 113.9 170.75 114.55 170.67 114.42Z" fill="#263238"/>
<path d="M161.32 119.28C161.981 118.681 162.757 118.222 163.6 117.93C164.369 117.477 165.223 117.187 166.11 117.08C164.684 118.139 163.052 118.888 161.32 119.28Z" fill="#263238"/>
<path d="M151.91 124.06C151.83 123.93 152.78 123.22 154.04 122.46C154.775 121.947 155.616 121.605 156.5 121.46C156.58 121.61 155.56 122.22 154.31 122.94C153.596 123.475 152.779 123.856 151.91 124.06Z" fill="#263238"/>
<path d="M143.91 130.94C143.8 130.84 144.49 129.86 145.54 128.83C146.119 128.144 146.848 127.6 147.67 127.24C147.77 127.36 146.96 128.24 145.93 129.24C144.9 130.24 144.07 131.04 143.91 130.94Z" fill="#263238"/>
<path d="M137.91 139.56C138.078 138.677 138.447 137.846 138.99 137.13C139.76 135.88 140.55 134.98 140.67 135.07C140.41 135.919 140.001 136.715 139.46 137.42C138.7 138.65 138.05 139.63 137.91 139.56Z" fill="#263238"/>
<path d="M134.07 149.36C134.019 148.464 134.183 147.569 134.55 146.75C134.738 145.87 135.132 145.048 135.7 144.35C135.407 146.088 134.858 147.773 134.07 149.35V149.36Z" fill="#263238"/>
<path d="M132.69 159.8C132.327 158.047 132.452 156.228 133.05 154.54C133.202 155.413 133.202 156.307 133.05 157.18C133.084 158.068 132.963 158.955 132.69 159.8Z" fill="#263238"/>
<path d="M134.07 170.23C133.621 169.457 133.338 168.599 133.24 167.71C132.946 166.859 132.87 165.948 133.02 165.06C133.407 165.861 133.664 166.718 133.78 167.6C134.057 168.447 134.156 169.343 134.07 170.23Z" fill="#263238"/>
<path d="M138.14 179.93C138.01 180.01 137.3 179.05 136.65 177.73C136.168 176.971 135.876 176.106 135.8 175.21C136.376 175.886 136.829 176.658 137.14 177.49C137.614 178.238 137.952 179.064 138.14 179.93Z" fill="#263238"/>
<path d="M144.46 188.36C144.36 188.46 143.46 187.7 142.46 186.58C141.816 185.952 141.324 185.186 141.02 184.34C141.15 184.24 141.94 185.12 142.88 186.22C143.82 187.32 144.57 188.25 144.46 188.36Z" fill="#263238"/>
<path d="M152.58 195.06C151.711 194.827 150.909 194.391 150.24 193.79C149.06 192.93 148.24 192.07 148.32 191.95C149.145 192.282 149.907 192.756 150.57 193.35C151.73 194.2 152.66 194.93 152.58 195.06Z" fill="#263238"/>
<path d="M162.08 199.6C161.18 199.594 160.295 199.371 159.5 198.95C158.633 198.707 157.839 198.254 157.19 197.63C158.066 197.759 158.914 198.033 159.7 198.44C160.55 198.698 161.353 199.089 162.08 199.6Z" fill="#263238"/>
<path d="M167.37 200.95C167.37 201.09 167.28 201.21 167.23 201.2C167.18 201.19 167.16 201.06 167.23 200.91C167.3 200.76 167.32 200.65 167.37 200.66C167.42 200.67 167.4 200.8 167.37 200.95Z" fill="#263238"/>
</g>
<defs>
<filter id="filter0_d_1134_353" x="34" y="0" width="301.17" height="288.53" filterUnits="userSpaceOnUse" color-interpolation-filters="sRGB">
<feFlood flood-opacity="0" result="BackgroundImageFix"/>
<feColorMatrix in="SourceAlpha" type="matrix" values="0 0 0 0 0 0 0 0 0 0 0 0 0 0 0 0 0 0 127 0" result="hardAlpha"/>
<feOffset dy="4"/>
<feGaussianBlur stdDeviation="2"/>
<feComposite in2="hardAlpha" operator="out"/>
<feColorMatrix type="matrix" values="0 0 0 0 0 0 0 0 0 0 0 0 0 0 0 0 0 0 0.25 0"/>
<feBlend mode="normal" in2="BackgroundImageFix" result="effect1_dropShadow_1134_353"/>
<feBlend mode="normal" in="SourceGraphic" in2="effect1_dropShadow_1134_353" result="shape"/>
</filter>
<clipPath id="clip0_1134_353">
<rect width="293.17" height="280.53" fill="white" transform="translate(38)"/>
</clipPath>
</defs>
</svg>
