<svg width="302" height="289" viewBox="0 0 302 289" fill="none" xmlns="http://www.w3.org/2000/svg">
<g clip-path="url(#clip0_960_892)" filter="url(#filter0_d_960_892)">
<path d="M100.54 9.50014L5.3501 133.17L261.35 69.5301L118.76 4.93014C115.654 3.52023 112.161 3.20451 108.852 4.03445C105.543 4.8644 102.613 6.79105 100.54 9.50014Z" fill="#EBEBEB"/>
<path d="M4 134.05L100.12 9.19003C102.264 6.38239 105.299 4.38822 108.727 3.53577C112.155 2.68333 115.771 3.0234 118.98 4.50003L262.98 69.73L4 134.05ZM112.5 4.05003C110.264 4.05154 108.059 4.57051 106.057 5.56631C104.055 6.56212 102.31 8.00774 100.96 9.79003L6.69 132.3L259.75 69.39L118.55 5.39003C116.649 4.53283 114.586 4.09296 112.5 4.10003V4.05003Z" fill="#E0E0E0"/>
<path d="M5.34326 133.175L262.245 69.3123L296.856 208.545C297.541 211.301 297.103 214.217 295.639 216.651C294.174 219.085 291.803 220.837 289.046 221.522L52.932 280.217C50.1754 280.902 47.2595 280.464 44.8258 279C42.3921 277.535 40.6398 275.164 39.9546 272.407L5.34326 133.175Z" fill="#F0F0F0"/>
<path d="M246.43 76.94L157.43 167.87L22.91 137.59L7.51998 66.24C6.66826 62.5596 7.29692 58.6918 9.27043 55.4706C11.2439 52.2494 14.4042 49.9327 18.07 49.02L212.67 0.649997C214.505 0.192328 216.411 0.100976 218.281 0.381171C220.151 0.661366 221.948 1.3076 223.568 2.2829C225.188 3.25819 226.599 4.54339 227.722 6.06492C228.845 7.58645 229.656 9.31445 230.11 11.15L246.43 76.94Z" fill="white"/>
<path d="M145.21 160.72L39.52 271.16C39.8932 272.662 40.5587 274.076 41.4784 275.32C42.3981 276.565 43.5541 277.616 44.8802 278.414C46.2063 279.212 47.6767 279.74 49.2072 279.97C50.7377 280.199 52.2983 280.124 53.8 279.75L288.1 221.5C291.131 220.746 293.739 218.82 295.35 216.144C296.96 213.468 297.443 210.262 296.69 207.23L296.47 206.35L158.27 157.6C156.024 156.806 153.596 156.679 151.279 157.232C148.962 157.786 146.855 158.997 145.21 160.72Z" fill="#E0E0E0"/>
<path d="M111.444 59.5538L35.314 78.4927L37.2477 86.2658L113.377 67.3268L111.444 59.5538Z" fill="#E0E0E0"/>
<path d="M209.126 56.1797L40.2146 98.2002L42.3994 106.983L211.311 64.962L209.126 56.1797Z" fill="#E0E0E0"/>
<path d="M214.469 77.6358L45.5574 119.656L47.7422 128.439L216.654 86.4181L214.469 77.6358Z" fill="#E0E0E0"/>
<path d="M218.02 106.07L212.73 111.36L70.93 148.43L52.4 144.1L51.7 142.09L220.07 100.21L220.79 103.12L218.02 106.07Z" fill="#E0E0E0"/>
<path d="M181.75 143.02L117.86 158.9L98.3401 154.44L193.81 130.69L181.75 143.02Z" fill="#E0E0E0"/>
<path d="M141.35 164.74C141.35 164.74 141.28 164.85 141.11 165.04L140.35 165.87L137.41 169.02L126.52 180.55C117.3 190.26 104.52 203.68 90.37 218.39C76.22 233.1 63.22 246.3 53.74 255.76C49 260.49 45.14 264.31 42.46 266.92L39.37 269.92L38.55 270.69C38.4645 270.786 38.367 270.87 38.26 270.94C38.3339 270.836 38.4176 270.739 38.51 270.65L39.29 269.84L42.29 266.77L53.46 255.5C62.87 245.97 75.8 232.74 89.98 218.02C104.16 203.3 116.98 190.02 126.23 180.29L137.23 168.88L140.23 165.8L141.03 165.01C141.25 164.82 141.35 164.74 141.35 164.74Z" fill="#FAFAFA"/>
<path d="M296.47 206.33C296.42 206.47 266.95 196.24 230.65 183.48C194.35 170.72 164.96 160.26 165.01 160.12C165.06 159.98 194.53 170.2 230.83 182.96C267.13 195.72 296.52 206.18 296.47 206.33Z" fill="#FAFAFA"/>
<path d="M250.66 72.5601C250.605 72.6492 250.541 72.7329 250.47 72.8101L249.91 73.5001L247.54 76.1301L238.71 85.7201C231.23 93.7901 220.81 104.85 209.13 116.92C197.45 128.99 186.67 139.76 178.85 147.5L169.54 156.62L166.98 159.07L166.31 159.7C166.15 159.84 166.07 159.91 166.06 159.9C166.124 159.815 166.194 159.734 166.27 159.66L166.9 158.99L169.39 156.47L178.57 147.23C186.33 139.42 197 128.6 208.68 116.54C220.36 104.48 230.82 93.5001 238.38 85.5001L247.33 76.0301L249.78 73.4701L250.43 72.8101C250.496 72.7176 250.573 72.6336 250.66 72.5601Z" fill="#FAFAFA"/>
<path d="M141.35 164.74C141.232 164.734 141.114 164.713 141 164.68L140 164.44L136 163.44C132.58 162.58 127.61 161.37 121.46 159.93C109.17 157.02 92.1201 153.27 73.2801 149.19C54.4401 145.11 37.4001 141.3 25.1301 138.29C18.9901 136.79 14.0301 135.53 10.6201 134.61L6.69009 133.54L5.69009 133.25C5.572 133.225 5.4577 133.185 5.3501 133.13L5.7001 133.2L6.7001 133.43L10.7001 134.43C14.1301 135.29 19.1001 136.49 25.2501 137.94C37.5401 140.85 54.5801 144.6 73.4301 148.68C92.2801 152.76 109.31 156.57 121.58 159.58C127.72 161.08 132.68 162.33 136.09 163.26L140.01 164.33L141.01 164.62L141.35 164.74Z" fill="#FAFAFA"/>
<path d="M246.43 76.9401C246.43 76.9401 246.33 76.6101 246.16 75.9401L245.43 73.1101C244.79 70.6001 243.86 66.9301 242.66 62.2001L232.59 22.0801C232.057 19.9601 231.513 17.7901 230.96 15.5701C230.69 14.4701 230.41 13.3401 230.12 12.2101C229.98 11.6401 229.84 11.0701 229.66 10.5201C229.503 9.95859 229.303 9.41024 229.06 8.88011C228.069 6.63667 226.51 4.69036 224.537 3.23312C222.564 1.77587 220.246 0.858029 217.81 0.570113C216.546 0.395234 215.264 0.395234 214 0.570113C212.74 0.790113 211.46 1.14011 210.17 1.45011L202.32 3.45011L185.91 7.50011L113 25.7001L39.9999 43.8201L23.6099 47.8801L19.6099 48.8801C18.3116 49.1499 17.0399 49.5347 15.8099 50.0301C13.4376 51.0584 11.3907 52.7146 9.88994 54.8201C9.16366 55.8433 8.57213 56.9558 8.12994 58.1301C7.71759 59.2902 7.44566 60.4954 7.31994 61.7201C7.02994 64.1701 7.70994 66.5301 8.18994 68.8601C9.18994 73.5268 10.1466 77.9968 11.0599 82.2701C14.7099 99.3601 17.6599 113.18 19.6999 122.75C20.6999 127.53 21.4899 131.23 22.0299 133.75C22.2799 135 22.4799 135.96 22.6199 136.62C22.7599 137.28 22.7999 137.62 22.7999 137.62C22.7999 137.62 22.7099 137.29 22.5599 136.62C22.4099 135.95 22.1999 135.01 21.9199 133.77C21.3599 131.24 20.5499 127.54 19.4999 122.77C17.4099 113.21 14.3999 99.3901 10.6799 82.3301C9.75994 78.0601 8.77994 73.5901 7.76994 68.9201C7.28994 66.6201 6.58994 64.1801 6.88994 61.6501C7.00491 60.3837 7.28045 59.137 7.70994 57.9401C8.16679 56.7284 8.77494 55.5793 9.51994 54.5201C10.2776 53.442 11.1831 52.4759 12.2099 51.6501C13.2381 50.7929 14.3872 50.092 15.6199 49.5701C16.8712 49.0594 18.1666 48.6645 19.4899 48.3901L23.4899 47.3901L39.9099 43.3301L112.91 25.1701L185.91 7.05012L202.3 2.99012L210.15 1.05011C211.44 0.730113 212.7 0.390113 214.02 0.160113C215.948 -0.127802 217.913 -0.0284676 219.802 0.452304C221.691 0.933076 223.465 1.78563 225.02 2.96011C226.999 4.45817 228.562 6.43758 229.56 8.71011C229.811 9.25624 230.018 9.82133 230.18 10.4001C230.36 10.9701 230.5 11.5401 230.64 12.1101C230.92 13.2401 231.19 14.3701 231.47 15.4801C232.02 17.7001 232.55 19.8701 233.08 21.9901L242.98 62.1801C244.13 66.9201 245.03 70.6001 245.64 73.1101C245.94 74.3601 246.17 75.3101 246.32 75.9601C246.47 76.6101 246.43 76.9401 246.43 76.9401Z" fill="#E0E0E0"/>
<path d="M134.61 24.16L124.73 31.69L125.21 46.07L116.15 38.88L111.16 43.16L92.1599 19.7L134.61 24.16Z" fill="#A95131"/>
<path d="M121.01 34.75C121.01 35.19 125.21 46.07 125.21 46.07L116.16 38.88L121.01 34.75Z" fill="#A95131"/>
<g opacity="0.3">
<path d="M121.01 34.75C121.01 35.19 125.21 46.07 125.21 46.07L116.16 38.88L121.01 34.75Z" fill="black"/>
</g>
<path d="M92.1599 19.7L121.01 34.75L125.21 46.07L124.73 31.69L92.1599 19.7Z" fill="#A95131"/>
<path opacity="0.1" d="M92.1599 19.7L121.01 34.75L125.21 46.07L124.73 31.69L92.1599 19.7Z" fill="black"/>
<path d="M146.58 44.19C145.693 44.203 144.81 44.0643 143.97 43.78C143.089 43.6719 142.235 43.4042 141.45 42.99C142.342 42.8729 143.248 42.9619 144.1 43.25C144.99 43.3591 145.841 43.6816 146.58 44.19Z" fill="#263238"/>
<path d="M156.26 48.34C154.582 47.7895 152.995 46.9943 151.55 45.98C152.443 46.0648 153.303 46.3595 154.06 46.84C155.37 47.5 156.34 48.21 156.26 48.34Z" fill="#263238"/>
<path d="M164.65 54.7C164.54 54.81 163.65 54.06 162.53 53.12C161.41 52.18 160.53 51.38 160.66 51.25C161.513 51.5513 162.283 52.0478 162.91 52.7C164 53.66 164.76 54.6 164.65 54.7Z" fill="#263238"/>
<path d="M171.05 63.05C170.91 63.12 170.25 62.15 169.45 60.95C168.89 60.2623 168.45 59.4846 168.15 58.65C168.26 58.56 169.1 59.42 169.91 60.65C170.474 61.3486 170.865 62.1711 171.05 63.05Z" fill="#263238"/>
<path d="M174.68 72.9198C174.251 72.1443 173.953 71.3029 173.8 70.4298C173.466 69.6056 173.28 68.7288 173.25 67.8398C173.79 68.5597 174.156 69.3948 174.32 70.2798C174.656 71.1166 174.78 72.0236 174.68 72.9198Z" fill="#263238"/>
<path d="M175.22 83.4199C175.041 82.5516 175.004 81.6601 175.11 80.7799C175.035 79.8959 175.116 79.0056 175.35 78.1499C175.655 78.9943 175.761 79.8978 175.66 80.7899C175.723 81.689 175.572 82.5903 175.22 83.4199Z" fill="#263238"/>
<path d="M172.49 93.5598C172.598 92.6819 172.848 91.8274 173.23 91.0298C173.434 90.1724 173.771 89.3524 174.23 88.5999C174.279 89.5008 174.096 90.3993 173.7 91.2099C173.496 92.0809 173.081 92.8881 172.49 93.5598Z" fill="#263238"/>
<path d="M166.38 102.1C166.28 101.98 167.06 101.1 168.01 100.02C168.96 98.94 169.72 98.02 169.85 98.13C169.566 98.9865 169.075 99.7595 168.42 100.38C167.45 101.5 166.48 102.21 166.38 102.1Z" fill="#263238"/>
<path d="M157.56 107.78C158.235 107.208 158.999 106.749 159.82 106.42C160.558 105.93 161.373 105.565 162.23 105.34C161.649 106.032 160.907 106.571 160.07 106.91C159.318 107.402 158.455 107.701 157.56 107.78Z" fill="#263238"/>
<path d="M147.3 109.99C148.136 109.682 149.019 109.517 149.91 109.5C150.775 109.301 151.666 109.244 152.55 109.33C151.765 109.775 150.882 110.019 149.98 110.04C149.097 110.251 148.174 110.234 147.3 109.99Z" fill="#263238"/>
<path d="M137 108.04C138.71 108.396 140.384 108.908 142 109.57C141.104 109.682 140.194 109.558 139.36 109.21C138.484 109.034 137.67 108.63 137 108.04Z" fill="#263238"/>
<path d="M129.7 100.8C129.85 100.75 130.31 101.8 131.13 102.98C131.95 104.16 132.74 104.98 132.63 105.13C132.52 105.28 131.54 104.53 130.68 103.3C130.075 102.605 129.729 101.721 129.7 100.8Z" fill="#263238"/>
<path d="M134.14 92.6099C134.14 92.7699 133.05 93.1199 131.91 93.9299C130.77 94.7399 130.16 95.7499 130.02 95.6699C129.88 95.5899 130.32 94.3899 131.59 93.4899C132.297 92.8826 133.209 92.5679 134.14 92.6099Z" fill="#263238"/>
<path d="M143.18 96.3599C143.04 96.4399 142.4 95.4599 141.36 94.4999C140.32 93.5399 139.26 93.0599 139.36 92.9099C140.289 92.9831 141.155 93.4089 141.78 94.0999C142.498 94.6649 142.994 95.4652 143.18 96.3599Z" fill="#263238"/>
<path d="M143.52 106.57C143.594 105.699 143.758 104.837 144.01 104C144.085 103.125 144.249 102.261 144.5 101.42C144.768 102.293 144.768 103.227 144.5 104.1C144.431 105.004 144.09 105.865 143.52 106.57Z" fill="#263238"/>
<path d="M136.67 114.42C136.58 114.29 137.49 113.54 138.58 112.61C139.67 111.68 140.58 110.88 140.65 110.98C140.72 111.08 140.07 112.06 138.94 112.98C137.81 113.9 136.75 114.55 136.67 114.42Z" fill="#263238"/>
<path d="M127.32 119.28C127.981 118.681 128.757 118.222 129.6 117.93C130.369 117.477 131.223 117.187 132.11 117.08C130.684 118.139 129.052 118.888 127.32 119.28Z" fill="#263238"/>
<path d="M117.91 124.06C117.83 123.93 118.78 123.22 120.04 122.46C120.775 121.947 121.616 121.605 122.5 121.46C122.58 121.61 121.56 122.22 120.31 122.94C119.596 123.475 118.779 123.856 117.91 124.06Z" fill="#263238"/>
<path d="M109.91 130.94C109.8 130.84 110.49 129.86 111.54 128.83C112.119 128.144 112.848 127.6 113.67 127.24C113.77 127.36 112.96 128.24 111.93 129.24C110.9 130.24 110.07 131.04 109.91 130.94Z" fill="#263238"/>
<path d="M103.91 139.56C104.078 138.677 104.447 137.846 104.99 137.13C105.76 135.88 106.55 134.98 106.67 135.07C106.41 135.919 106.001 136.715 105.46 137.42C104.7 138.65 104.05 139.63 103.91 139.56Z" fill="#263238"/>
<path d="M100.07 149.36C100.019 148.464 100.183 147.569 100.55 146.75C100.738 145.87 101.132 145.048 101.7 144.35C101.407 146.088 100.858 147.773 100.07 149.35V149.36Z" fill="#263238"/>
<path d="M98.6898 159.8C98.3271 158.047 98.4516 156.228 99.0498 154.54C99.202 155.413 99.202 156.307 99.0498 157.18C99.0845 158.068 98.9626 158.955 98.6898 159.8Z" fill="#263238"/>
<path d="M100.07 170.23C99.621 169.457 99.3383 168.599 99.2398 167.71C98.9459 166.859 98.8703 165.948 99.0198 165.06C99.4071 165.861 99.6637 166.718 99.7798 167.6C100.057 168.447 100.156 169.343 100.07 170.23Z" fill="#263238"/>
<path d="M104.14 179.93C104.01 180.01 103.3 179.05 102.65 177.73C102.168 176.971 101.876 176.106 101.8 175.21C102.376 175.886 102.829 176.658 103.14 177.49C103.614 178.238 103.952 179.064 104.14 179.93Z" fill="#263238"/>
<path d="M110.46 188.36C110.36 188.46 109.46 187.7 108.46 186.58C107.816 185.952 107.324 185.186 107.02 184.34C107.15 184.24 107.94 185.12 108.88 186.22C109.82 187.32 110.57 188.25 110.46 188.36Z" fill="#263238"/>
<path d="M118.58 195.06C117.711 194.827 116.909 194.391 116.24 193.79C115.06 192.93 114.24 192.07 114.32 191.95C115.145 192.282 115.907 192.756 116.57 193.35C117.73 194.2 118.66 194.93 118.58 195.06Z" fill="#263238"/>
<path d="M128.08 199.6C127.18 199.594 126.295 199.371 125.5 198.95C124.633 198.707 123.839 198.254 123.19 197.63C124.066 197.759 124.914 198.033 125.7 198.44C126.55 198.698 127.353 199.089 128.08 199.6Z" fill="#263238"/>
<path d="M133.37 200.95C133.37 201.09 133.28 201.21 133.23 201.2C133.18 201.19 133.16 201.06 133.23 200.91C133.3 200.76 133.32 200.65 133.37 200.66C133.42 200.67 133.4 200.8 133.37 200.95Z" fill="#263238"/>
</g>
<defs>
<filter id="filter0_d_960_892" x="0" y="0" width="301.17" height="288.53" filterUnits="userSpaceOnUse" color-interpolation-filters="sRGB">
<feFlood flood-opacity="0" result="BackgroundImageFix"/>
<feColorMatrix in="SourceAlpha" type="matrix" values="0 0 0 0 0 0 0 0 0 0 0 0 0 0 0 0 0 0 127 0" result="hardAlpha"/>
<feOffset dy="4"/>
<feGaussianBlur stdDeviation="2"/>
<feComposite in2="hardAlpha" operator="out"/>
<feColorMatrix type="matrix" values="0 0 0 0 0 0 0 0 0 0 0 0 0 0 0 0 0 0 0.25 0"/>
<feBlend mode="normal" in2="BackgroundImageFix" result="effect1_dropShadow_960_892"/>
<feBlend mode="normal" in="SourceGraphic" in2="effect1_dropShadow_960_892" result="shape"/>
</filter>
<clipPath id="clip0_960_892">
<rect width="293.17" height="280.53" fill="white" transform="translate(4)"/>
</clipPath>
</defs>
</svg>
